<?xml version="1.0" encoding="utf-8"?><!-- Uploaded to: SVG Repo, www.svgrepo.com, Generator: SVG Repo Mixer Tools -->
<svg version="1.1" id="Uploaded to svgrepo.com" xmlns="http://www.w3.org/2000/svg" xmlns:xlink="http://www.w3.org/1999/xlink" 
	 width="800px" height="800px" viewBox="0 0 32 32" xml:space="preserve">
<style type="text/css">
	.linesandangles_een{fill:#111918;}
</style>
<path class="linesandangles_een" d="M26.75,5.25c-4.081-2.077-9.546-1.767-13.471,2.158c-0.983,0.983-1.773,1.914-2.424,2.79
	l-0.028-0.028c-1.56-1.56-4.097-1.56-5.657,0s-1.56,4.097,0,5.657l0.51,0.51l2.671-1.335c-0.374,1.324-0.356,2.079-0.258,2.776
	l6.131,6.131c0.696,0.097,1.451,0.116,2.776-0.258l-1.336,2.671l0.51,0.51c1.56,1.56,4.097,1.56,5.657,0s1.56-4.097,0-5.657
	l-0.028-0.028c0.876-0.652,1.807-1.441,2.79-2.424C28.464,14.85,28.862,9.398,26.75,5.25z M6.187,13.847
	c-0.346-0.741-0.214-1.652,0.397-2.263c0.78-0.78,2.049-0.78,2.828,0l0.31,0.31c-0.051,0.087-0.108,0.177-0.156,0.262L6.187,13.847z
	 M20.416,22.588c0.78,0.78,0.78,2.048,0,2.828c-0.611,0.611-1.522,0.743-2.263,0.397l1.691-3.38
	c0.085-0.048,0.175-0.105,0.262-0.156L20.416,22.588z M15.115,21.971l-5.09-5.09c0.043-0.91,0.526-3.917,4.668-8.06
	c4.3-4.3,9.287-2.611,10.559-2.074c0.538,1.276,2.225,6.261-2.074,10.559C19.06,21.425,16.043,21.923,15.115,21.971z M16.643,12.357
	c0,1.654,1.346,3,3,3c1.654,0,3-1.346,3-3c0-1.654-1.346-3-3-3C17.989,9.357,16.643,10.703,16.643,12.357z M20.643,12.357
	c0,0.551-0.448,1-1,1c-0.552,0-1-0.449-1-1c0-0.551,0.448-1,1-1S20.643,11.806,20.643,12.357z M4.879,22.878
	c-1.007,1.007-1.02,3.522-1,4.27l0.027,0.946l1.164,0.029c1.391,0,3.223-0.174,4.051-1.001c1.175-1.176,1.17-3.072,0-4.243
	C7.988,21.745,6.012,21.746,4.879,22.878z M7.708,25.706c-0.152,0.139-0.787,0.323-1.805,0.391c0.062-0.849,0.215-1.61,0.39-1.803
	c0.39-0.389,1.021-0.392,1.414,0C8.099,24.683,8.097,25.319,7.708,25.706z"/>
</svg>